HIERARCHY
ROOT Hips
{
	OFFSET -14.64140 90.27770 -84.91600
	CHANNELS 6 Xposition Yposition Zposition Zrotation Xrotation Yrotation
	JOINT Spine
	{
		OFFSET 0.00000 13.20850 -1.60436
		CHANNELS 3 Zrotation Xrotation Yrotation
		JOINT Spine1
		{
			OFFSET 0.00000 8.61716 0.00000
			CHANNELS 3 Zrotation Xrotation Yrotation
			JOINT Spine2
			{
				OFFSET 0.00000 8.61717 0.00000
				CHANNELS 3 Zrotation Xrotation Yrotation
				JOINT Spine3
				{
					OFFSET 0.00000 8.61717 0.00000
					CHANNELS 3 Zrotation Xrotation Yrotation
					JOINT Neck
					{
						OFFSET 0.00000 11.07920 1.10792
						CHANNELS 3 Zrotation Xrotation Yrotation
						JOINT Neck1
						{
							OFFSET 0.00000 7.08032 0.00000
							CHANNELS 3 Zrotation Xrotation Yrotation
							JOINT Head
							{
								OFFSET 0.00000 7.08031 0.00000
								CHANNELS 3 Zrotation Xrotation Yrotation
								End site
								{
									OFFSET 0.00000 0.00000 0.00000
								}
							}
						}
					}
					JOINT RightShoulder
					{
						OFFSET -0.01000 7.91373 5.19711
						CHANNELS 3 Zrotation Xrotation Yrotation
						JOINT RightArm
						{
							OFFSET -18.41580 0.00000 0.00000
							CHANNELS 3 Zrotation Xrotation Yrotation
							JOINT RightForeArm
							{
								OFFSET -29.11090 0.00000 0.00000
								CHANNELS 3 Zrotation Xrotation Yrotation
								JOINT RightHand
								{
									OFFSET -24.65040 0.00000 0.00000
									CHANNELS 3 Zrotation Xrotation Yrotation
									JOINT RightHandThumb1
									{
										OFFSET -5.35114 -0.85590 3.97906
										CHANNELS 3 Zrotation Xrotation Yrotation
										JOINT RightHandThumb2
										{
											OFFSET -4.52789 0.00000 0.00000
											CHANNELS 3 Zrotation Xrotation Yrotation
											JOINT RightHandThumb3
											{
												OFFSET -2.46976 0.00000 0.00000
												CHANNELS 3 Zrotation Xrotation Yrotation
												End site
												{
													OFFSET 0.00000 0.00000 0.00000
												}
											}
										}
									}
									JOINT RightHandIndex1
									{
										OFFSET -14.26970 0.00000 2.88139
										CHANNELS 3 Zrotation Xrotation Yrotation
										JOINT RightHandIndex2
										{
											OFFSET -5.48836 0.00000 0.00000
											CHANNELS 3 Zrotation Xrotation Yrotation
											JOINT RightHandIndex3
											{
												OFFSET -3.01859 0.00000 0.00000
												CHANNELS 3 Zrotation Xrotation Yrotation
												End site
												{
													OFFSET 0.00000 0.00000 0.00000
												}
											}
										}
									}
									JOINT RightHandMiddle1
									{
										OFFSET -14.26970 0.00000 -0.09147
										CHANNELS 3 Zrotation Xrotation Yrotation
										JOINT RightHandMiddle2
										{
											OFFSET -6.17441 0.00000 0.00000
											CHANNELS 3 Zrotation Xrotation Yrotation
											JOINT RightHandMiddle3
											{
												OFFSET -3.56743 0.00000 0.00000
												CHANNELS 3 Zrotation Xrotation Yrotation
												End site
												{
													OFFSET 0.00000 0.00000 0.00000
												}
											}
										}
									}
									JOINT RightHandRing1
									{
										OFFSET -12.69180 0.00000 -3.06433
										CHANNELS 3 Zrotation Xrotation Yrotation
										JOINT RightHandRing2
										{
											OFFSET -5.62556 0.00000 0.00000
											CHANNELS 3 Zrotation Xrotation Yrotation
											JOINT RightHandRing3
											{
												OFFSET -3.56744 0.00000 0.00000
												CHANNELS 3 Zrotation Xrotation Yrotation
												End site
												{
													OFFSET 0.00000 0.00000 0.00000
												}
											}
										}
									}
									JOINT RightHandPinky1
									{
										OFFSET -11.11390 0.00000 -6.03719
										CHANNELS 3 Zrotation Xrotation Yrotation
										JOINT RightHandPinky2
										{
											OFFSET -4.52789 0.00000 0.00000
											CHANNELS 3 Zrotation Xrotation Yrotation
											JOINT RightHandPinky3
											{
												OFFSET -2.46976 0.00000 0.00000
												CHANNELS 3 Zrotation Xrotation Yrotation
												End site
												{
													OFFSET 0.00000 0.00000 0.00000
												}
											}
										}
									}
								}
							}
						}
					}
					JOINT LeftShoulder
					{
						OFFSET 0.01000 7.91373 5.19711
						CHANNELS 3 Zrotation Xrotation Yrotation
						JOINT LeftArm
						{
							OFFSET 18.41580 0.00000 0.00000
							CHANNELS 3 Zrotation Xrotation Yrotation
							JOINT LeftForeArm
							{
								OFFSET 29.11090 0.00000 0.00000
								CHANNELS 3 Zrotation Xrotation Yrotation
								JOINT LeftHand
								{
									OFFSET 24.65040 0.00000 0.00000
									CHANNELS 3 Zrotation Xrotation Yrotation
									JOINT LeftHandThumb1
									{
										OFFSET 5.35114 -0.85590 3.97906
										CHANNELS 3 Zrotation Xrotation Yrotation
										JOINT LeftHandThumb2
										{
											OFFSET 4.52789 0.00000 0.00000
											CHANNELS 3 Zrotation Xrotation Yrotation
											JOINT LeftHandThumb3
											{
												OFFSET 2.46977 0.00000 0.00000
												CHANNELS 3 Zrotation Xrotation Yrotation
												End site
												{
													OFFSET 0.00000 0.00000 0.00000
												}
											}
										}
									}
									JOINT LeftHandIndex1
									{
										OFFSET 14.26970 0.00000 2.88139
										CHANNELS 3 Zrotation Xrotation Yrotation
										JOINT LeftHandIndex2
										{
											OFFSET 5.48836 0.00000 0.00000
											CHANNELS 3 Zrotation Xrotation Yrotation
											JOINT LeftHandIndex3
											{
												OFFSET 3.01859 0.00000 0.00000
												CHANNELS 3 Zrotation Xrotation Yrotation
												End site
												{
													OFFSET 0.00000 0.00000 0.00000
												}
											}
										}
									}
									JOINT LeftHandMiddle1
									{
										OFFSET 14.26970 0.00000 -0.09147
										CHANNELS 3 Zrotation Xrotation Yrotation
										JOINT LeftHandMiddle2
										{
											OFFSET 6.17440 0.00000 0.00000
											CHANNELS 3 Zrotation Xrotation Yrotation
											JOINT LeftHandMiddle3
											{
												OFFSET 3.56744 0.00000 0.00000
												CHANNELS 3 Zrotation Xrotation Yrotation
												End site
												{
													OFFSET 0.00000 0.00000 0.00000
												}
											}
										}
									}
									JOINT LeftHandRing1
									{
										OFFSET 12.69180 0.00000 -3.06433
										CHANNELS 3 Zrotation Xrotation Yrotation
										JOINT LeftHandRing2
										{
											OFFSET 5.62556 0.00000 0.00000
											CHANNELS 3 Zrotation Xrotation Yrotation
											JOINT LeftHandRing3
											{
												OFFSET 3.56744 0.00000 0.00000
												CHANNELS 3 Zrotation Xrotation Yrotation
												End site
												{
													OFFSET 0.00000 0.00000 0.00000
												}
											}
										}
									}
									JOINT LeftHandPinky1
									{
										OFFSET 11.11390 0.00000 -6.03719
										CHANNELS 3 Zrotation Xrotation Yrotation
										JOINT LeftHandPinky2
										{
											OFFSET 4.52789 0.00000 0.00000
											CHANNELS 3 Zrotation Xrotation Yrotation
											JOINT LeftHandPinky3
											{
												OFFSET 2.46976 0.00000 0.00000
												CHANNELS 3 Zrotation Xrotation Yrotation
												End site
												{
													OFFSET 0.00000 0.00000 0.00000
												}
											}
										}
									}
								}
							}
						}
					}
					JOINT pCube4
					{
						OFFSET 0.00000 10.91090 1.10792
						CHANNELS 3 Zrotation Xrotation Yrotation
						End site
						{
							OFFSET 0.00000 0.00000 0.00000
						}
					}
				}
			}
		}
	}
	JOINT RightUpLeg
	{
		OFFSET -9.98441 0.00000 0.00000
		CHANNELS 3 Zrotation Xrotation Yrotation
		JOINT RightLeg
		{
			OFFSET 0.00000 -42.11790 0.00000
			CHANNELS 3 Zrotation Xrotation Yrotation
			JOINT RightFoot
			{
				OFFSET 0.00000 -45.00020 -0.00001
				CHANNELS 3 Zrotation Xrotation Yrotation
				JOINT RightForeFoot
				{
					OFFSET 0.00000 -3.74820 0.00000
					CHANNELS 3 Zrotation Xrotation Yrotation
					JOINT RightToeBase
					{
						OFFSET 0.00000 0.06325 14.43120
						CHANNELS 3 Zrotation Xrotation Yrotation
						End site
						{
							OFFSET 0.00000 0.00000 0.00000
						}
					}
				}
			}
		}
	}
	JOINT LeftUpLeg
	{
		OFFSET 9.98441 0.00000 0.00000
		CHANNELS 3 Zrotation Xrotation Yrotation
		JOINT LeftLeg
		{
			OFFSET 0.00000 -42.11800 0.00000
			CHANNELS 3 Zrotation Xrotation Yrotation
			JOINT LeftFoot
			{
				OFFSET 0.00000 -45.00070 0.00000
				CHANNELS 3 Zrotation Xrotation Yrotation
				JOINT LeftForeFoot
				{
					OFFSET 0.00000 -3.74824 0.00000
					CHANNELS 3 Zrotation Xrotation Yrotation
					JOINT LeftToeBase
					{
						OFFSET 0.00000 0.06325 14.43110
						CHANNELS 3 Zrotation Xrotation Yrotation
						End site
						{
							OFFSET 0.00000 0.00000 0.00000
						}
					}
				}
			}
		}
	}
}
MOTION
Frames: 4
Frame Time: 0.050000
-0.006955615961428884 -0.04437297260090719 0.0179287948851845 -0.02796890345751836 0.037884788649098694 -0.018229079935298372 -4.861663571466625 9.239263842293186 -0.4063219462922981 -0.8072840865920091 2.9561858411721853 0.4404240972445459 -0.9778759784161739 0.4997623209240116 -0.5902539634194167 -1.1564410966517145 0.19732859985285262 -0.9234153399790661 -0.6485913935959513 6.256304291244183 1.1396176631736425 -0.47830597438574185 -2.159870442160214 -2.453324903821163 -0.5716383629530462 -16.832020558416808 -0.10052179110694862 2.866386336622121 0.11525365352075406 -7.094767055731834 52.829388547543694 4.668489605221334 35.601749677085145 6.714475040048997 17.520165298818508 74.25550601832747 27.698202272223202 -0.11471046250610041 -9.54914689729196 4.551290863274076 -0.08739636086775991 -1.5485811473338627 0.0271099981334876 -8.831442441018297e-06 -56.261393056695596 -0.019467749471465637 0.020073162492058646 -56.186947612915596 -38.738982660312466 0.008543451058095232 -0.027012323602352874 -0.0049591354851885126 -0.04558962052276464 -0.0031947415243325787 -0.0038139113517077793 -0.031323735008010604 -0.04873770580547114 -36.66814627822066 -0.03984590671353061 0.0035401562528518202 0.0251843585285136 -0.04094170408567602 0.029804925307599345 -0.04169236470970306 0.0009034361547387947 -0.04631442468608307 -19.770920955350174 -0.0254957425407442 -0.012348931487543038 -0.020756890767424842 0.04529200984282344 -0.028431089816159175 0.047140731827429914 -0.044924586023376414 -0.011050704902514407 24.057191588125704 0.04380379913049201 0.01718184473138156 28.88884369287899 -0.03104760774989916 -0.004003332903755745 28.818051818873954 -0.010718614152904865 -0.049965608185453064 -2.2044237633952597 0.03057373200841709 7.075481035581218 -50.74870836823847 19.83205523458808 -29.226291684328235 -24.388961389622256 14.98107417465667 -82.15166730770972 -25.658008740476966 -7.99104105134573 6.345755175316959 -0.4663682669961735 0.09237835485056173 -8.139578871912567 -0.04679463498932417 0.02796832248559032 44.53368940649447 0.01062372708515727 -0.044951515645611596 44.58119213147955 12.486120853065247 -0.0034548019536278477 0.009512187882790457 0.017777592519212498 0.016485076962358323 -0.01367213526694342 0.003659194290051791 -0.02167763952333689 0.0443752598472569 11.111582694830714 0.0063457909956291395 -0.03868094915134532 0.027782152979201915 -0.000459615532354033 -0.003526598536215668 -0.034530109111095435 0.021786814637935383 0.04081638126769442 4.7774492374758735 -0.0475882389365782 -0.02350852142700304 -0.04950021245645308 -0.043147798122299824 0.01482399152842537 -0.013904669176641014 0.020201367147849134 -0.008748342164048215 -5.610371295058629 -0.03332233552971018 0.03460501530496529 -6.73912061194819 0.01173998450467163 -0.016479434942886062 -6.7048862522947585 0.023946147749442055 0.03554352740522847 0.04532990871352342 -0.022762996760600757 -0.021024221523380116 8.046484861161593 3.4471429869600656 -19.239147478127368 0.04500377994034245 10.355582472589372 0.05319135975964885 -5.572461383138452 -15.621703455155494 3.1918551906095782 0.013492127143769085 0.027516654313890228 -0.03445650554014534 0.004898381920159706 4.739333917365896 0.023579866442728237 12.502125824690895 -8.26545628818853 6.907700052756771 0.045701836374734905 46.40782356910545 0.020413187521972378 -4.295870038267922 -14.717669152753428 -3.8170020192696836 0.004243196598843122 0.030549478211239885 0.0069023130374695095 -0.007413242010359806 -10.766623346617429 0.0012610904521240588 
-0.040654571923963746 0.00025852142839624735 0.03145127815946063 0.0036652317543497933 0.00787665200101331 -0.030246728249084115 -4.830315448595471 9.221043757167033 -0.43292685222984356 -0.8058268168427951 2.9424217118023406 0.42600583570564265 -0.9741768105443764 0.4517908161038321 -0.6282896708875154 -1.1878627152092278 0.2417283899717351 -0.9462135454166142 -0.6872561895375812 6.089181227051021 1.2128269887185152 -0.48243682844645736 -2.1659230378307717 -2.1280394764415083 -0.5431463531484726 -16.67444428815083 -0.10936450552289272 3.15034846060298 0.05322323119506287 -7.083698030847508 50.56566430181128 4.222289923995349 33.11402514784956 2.0312454077968805 17.1443478314505 71.21049844248734 28.59741551597771 -0.12133265047429119 -8.842796302766928 4.514099331252244 -0.12822415454866357 -1.6382117079413463 -0.01296085011022188 0.0145217047708761 -56.24249987351815 0.015787107576095784 -0.04825708208615147 -56.257296459210075 -38.76186749831573 0.0027530663344509146 0.04914883042051663 -0.02292857798915514 0.024119810072866482 0.008892492637283258 -0.011490168849839492 -0.014186922855135595 0.036623358975917834 -36.69926355521252 -0.025014794433359022 -0.017358584891097952 -0.029799867651732596 -0.021477504079010088 0.039053287431626824 -0.007777804706893719 -0.027800681691566638 0.029086878991216362 -19.757345481559323 0.01989240082330213 -0.01597697498949606 -0.017922208982746123 0.037853802278806366 0.02606600451030473 -0.02935227905929103 0.017074216816654615 0.00561913907476055 24.100360635654457 -0.021044759533399616 0.01174501899306101 28.859668079913074 0.005870296059126089 0.021969270665530196 28.862642344171967 -0.014299738767353395 0.031029966110424155 -2.228049709754905 0.07232942632777402 7.182432969892517 -49.229069393627064 19.748319644157778 -28.890918268338552 -19.710479778982055 13.762007245015685 -80.803688950321 -26.45389042720556 -8.455940305321493 6.684491772190284 -0.47266001428604176 0.03682713616639317 -8.131884586688997 0.027063535070674705 -0.019434318394257983 44.56278732271876 -0.014727422634940627 0.040289486274186104 44.60089488244344 12.461846874271759 0.040710689304158665 -0.03146898151544249 0.042265384901529264 0.008623770354274717 -0.03269783047251347 0.0015432870749567328 0.021618994412629686 0.015707932069094238 11.110859537167617 0.009366598600618274 -0.00940289610532967 0.04240999812876538 0.013817591347991681 -0.046857255727607044 0.021084824120319978 0.04884469379144866 -0.0029562211707616966 4.792397769018933 0.037757420119990594 -0.015712971431743765 -0.04391864167292771 0.023324790960485727 0.001457504605045147 0.010215369341031013 0.012988909859250901 -0.02036151217421802 -5.561206207121366 -0.040867453062934336 -0.018049106288234272 -6.704941900010313 -0.03428856699363852 -0.008530480232318746 -6.741667279190817 0.03167681226113094 0.005752893097756208 -0.02737224165064571 0.009599375947750767 0.0015508673334808265 8.000150047956295 3.5244377651894787 -19.230895404794133 -0.014131817296652489 10.400847331572697 0.02162775892397427 -5.579529236425074 -15.66830883001168 3.2203325333274897 -0.046821390903203426 0.02791261291991706 0.017771842754283593 0.018702683508121164 4.693807761279086 0.01623673922731004 12.504234832254111 -8.23496518756836 6.900830412855681 0.0046313052306465275 46.364481743000525 0.005754211114248556 -4.29577629066083 -14.758426527180173 -3.788182051708291 0.033279950187886 -0.023436457597144043 0.011083274094365984 -0.022435707786557246 -10.720650401705086 -0.0019242444354986036 
0.03373435980125806 -0.03933409805744756 -0.0444065790179082 -0.03502133902317351 -0.03833013167613303 0.040788387897342085 -4.777993163197034 9.175924610721433 -0.4456374374705354 -0.7680366504433183 2.96660738178605 0.4359289640197334 -1.0256412511762645 0.4675873867663013 -0.8060353332278568 -1.0816825736743725 0.18719380496697702 -0.9545929307284742 -0.7518921449016293 5.97591469694473 1.1489621262037948 -0.5020678523646698 -2.1289471922914758 -2.1422102210657865 -0.5442708734871927 -16.651018455341358 -0.03812878043455854 3.615893939540785 -0.09027054728451432 -7.140264661675769 48.930618379559476 4.098587228883654 30.32134844845404 -0.9727583272918235 16.930156568338266 68.12014165038025 29.881042838092284 -0.17914994041433466 -8.610490335315488 4.5511383650220365 -0.12302230892723226 -1.5521787338605466 0.0078070907670360875 0.02067828266986744 -56.2508995489802 -0.007762494239924654 -0.013446337754952773 -56.21987047994766 -38.78342683465638 0.037175206601157675 0.007642648132276182 -0.02320670999316004 0.012458935874380407 -0.021374570512261427 -0.027193968006144757 0.006522424686847793 0.017375127988653257 -36.670357748210854 0.01739029749041507 0.02073363587603733 -0.027901813651501586 -0.0059960669979326935 -0.008374791570329722 -0.0348821355418429 0.04013676842484924 0.024530047439428004 -19.732648811059757 0.026381608408584962 -0.0019394299597905544 0.03824978073574479 0.02613791447289589 0.02318782047536217 -0.030463158126021246 -0.00025728078803753847 -0.021290250871971252 24.098326107495673 0.006291704866845772 -0.04601976884027284 28.849911060024205 0.047047454215137126 -0.04453406536249037 28.907066419770175 0.0033999713078054286 0.010376945124952675 -2.391365566766958 0.04758003725096051 7.216427837073258 -47.61781333992179 20.383004346193637 -28.73664659388899 -14.57408477881043 11.73454115862124 -79.39746331463932 -27.49139024693178 -9.122083017334464 7.368546424177372 -0.4811692650686619 0.02430682940167734 -8.150700284771892 -0.0257202141734809 -0.028174229156286066 44.55538126614693 0.006747968066232464 -0.03083285575032723 44.58647719190933 12.433582440500125 0.001314522093715701 0.020367044537688388 -0.049118647343501264 -0.043171267380579866 0.005251701665310624 0.012707348094163635 -0.026448650273895556 -0.013518452567011029 11.071851767740535 -0.03394531468676286 0.04769791198862826 0.011500569409052582 0.03291752711649423 0.001820414230389428 0.034993142660309194 0.004677265801029947 0.04026861253238151 4.80527104258528 -0.015255559153823199 0.002045897701017291 0.037370853894192584 -0.01910366459415251 0.01963874061032318 0.030229928556884722 -0.029389548687630412 0.04726640451319765 -5.604396800711794 0.00435554020155167 0.03763409881385204 -6.697910925043482 0.02355939891689563 0.007892145031483564 -6.732920257827845 0.04651547847788132 0.017501217482208595 0.03781803306767384 -0.03731936866626025 0.04205691780691172 8.075363083938521 3.486762385448378 -19.21750261898963 0.026794588234677594 10.436927192336327 0.015827956758968906 -5.622314152385564 -15.643916625479223 3.1596675443473097 0.04269387018567631 0.005902161488082909 -0.01629039114258553 -0.02287266674845784 4.702862998540974 0.02975686643457004 12.418667802190818 -8.219509050329092 6.843679850045765 -0.019445616711494383 46.41671513914827 0.00021866557874584557 -4.361973891414656 -14.714012222553432 -3.8340666824743104 0.01890993259536528 0.03566436875849433 -0.028861446096097275 -0.0084413625975891 -10.793692350715999 -0.011766060077155159 
0.036116423499726796 0.03793016705175182 -0.044447406928717154 -0.00236013225213645 0.017802836219750096 0.01716611894797133 -4.767857670236468 9.050202710973753 -0.3866319320026559 -0.7667454475546391 2.8865531911654965 0.4421987349316525 -0.9442064600141091 0.3649103034834606 -0.9498974403196935 -1.0017893720058273 0.13871696448589016 -1.0188940811724052 -0.7598015777016844 5.888422990490723 0.963464008341037 -0.48431165739336485 -2.1013967539282543 -2.3480565088070904 -0.5589017750654379 -16.4694128346673 -0.06291399226732294 3.9052025250154117 -0.1501280754495844 -7.206187115741971 47.83580044199562 4.098058557724309 28.88766261536414 -1.9414526437044435 16.87362667607312 66.6706973284363 30.856133922156193 -0.08370645401283693 -8.793235050096314 4.565428871128585 -0.12448354102754193 -1.5935086491282595 -0.007054387558813262 -0.02016658482835024 -56.20795567802041 0.027081434627738064 -0.02396822248667529 -56.261302163822045 -38.76447886410502 0.020952394270327017 0.03989831227572549 -0.021356670000520744 0.045102753020218066 0.015042780419366065 0.01466739438423457 0.012682602427493445 0.01142147288640931 -36.688867762435116 -0.03882354531070013 0.02214886122978878 0.003622909957407305 0.011168966194022098 -0.024407587491449233 -0.036827367717891635 -0.022944142437101377 0.04802125129832746 -19.722588872117917 -0.048961781646342295 -0.04982991126484223 -0.015099896156733282 0.020986828050188498 0.048558165970393107 0.0077946243667751935 -0.00240777070519194 -0.019370587834224292 24.072548057414057 0.017254404747743906 -0.03156990873454947 28.848625342712534 0.02681828657914964 -0.01886140507916349 28.830821676846867 -0.018929584787039867 0.03981819859603275 -2.4020000392836955 0.08732804691890864 7.156178808520215 -46.33641261959438 21.26987727634482 -29.397590786576515 -10.367071603072338 9.511371787251223 -78.80246850436897 -28.467335743705636 -9.632765342298978 7.955659500580547 -0.4775356272760365 0.02014919451420215 -8.12298244237501 0.02911766617818248 0.04317575833570719 44.59103382707869 0.025832357672938944 -0.04316223609383243 44.572741579073465 12.46944528039599 0.011978940472879873 0.04464420034106405 0.0448003242407599 -0.004908592533780097 -0.04663167722139813 0.03230209361920962 0.044894204152678925 0.026676782953626802 11.116682330014719 0.0250429629531819 -0.028586071396403494 -0.024231065557842938 -0.02308089553723114 -0.03814414948273489 0.04486247043442548 -0.035789127958568784 -0.039302737510004265 4.806044951395822 -0.024159276705239447 0.010286887741207828 -0.03905697701366679 -0.01852360138226806 -0.01725446314733001 0.03893703048665599 0.02385283123524641 -0.015870586785480457 -5.648676478136483 -0.04472465400082314 -0.03429464722923305 -6.7083908889972985 0.04467681633087398 -0.018267499231004583 -6.737984866247956 0.002025973959712278 -0.003863368464383372 -0.01662957928137097 0.047142313239026304 -0.024254241441031048 8.04891972288638 3.447684349799106 -19.237114429539762 -0.03698696573077674 10.43409612537571 0.0029933195376699844 -5.6106494813569645 -15.657315644872828 3.1705981981443485 0.02862044295474161 -0.013794658693287965 -0.023792840939130054 -0.004933126036778 4.741764418848301 0.0014488659964168689 12.44375268059975 -8.28543417284926 6.860852259473752 0.03571827884614597 46.34193045655601 -0.012454619763906799 -4.316754310030688 -14.742109129385016 -3.8011454596471688 -0.03484158098199593 -0.02610604546124061 0.040385005486914365 0.007625670139918699 -10.77366930909057 -0.0207060370014962 
